<svg xmlns="http://www.w3.org/2000/svg" viewBox="0 0 256 256">
  <path d="M128 40c-8 0-15 3-20 8-3-2-7-3-11-3-12 0-22 10-22 22 0 3 1 6 2 9-15 8-25 24-25 42 0 20 12 37 29 44v30c0 8 6 14 14 14s14-6 14-14v-20h8v20c0 8 6 14 14 14s14-6 14-14v-30c17-7 29-24 29-44 0-18-10-34-25-42 1-3 2-6 2-9 0-12-10-22-22-22-4 0-8 1-11 3-5-5-12-8-20-8z" fill="#2D5016"/>
  <path d="M128 206c-3 0-6 1-8 3l-25 25c-4 4-4 10 0 14 2 2 5 3 7 3 3 0 5-1 7-3l19-19 19 19c2 2 5 3 7 3 3 0 5-1 7-3 4-4 4-10 0-14l-25-25c-2-2-5-3-8-3z" fill="#2D5016"/>
  <ellipse cx="105" cy="100" rx="6" ry="8" fill="#2D5016" opacity="0.4"/>
  <ellipse cx="151" cy="100" rx="6" ry="8" fill="#2D5016" opacity="0.4"/>
  <path d="M200 80c-2-4-4-7-7-10 3-1 6-2 8-4 5-3 7-9 4-14s-9-7-14-4c-8 5-18 7-28 7 2-3 3-6 3-10 0-8-6-14-14-14s-14 6-14 14c0 4 1 7 3 10-10 0-20-2-28-7-5-3-11-1-14 4s-1 11 4 14c2 2 5 3 8 4-3 3-5 6-7 10-2 5 0 11 5 13 1 1 3 1 4 1 4 0 7-2 9-6 4-8 11-14 19-17-8 10-13 23-13 37 0 3 0 6 1 9-6 2-10 8-10 14 0 9 7 16 16 16s16-7 16-16c0-6-4-12-10-14 1-3 1-6 1-9 0-14-5-27-13-37 8 3 15 9 19 17 2 4 5 6 9 6 1 0 3 0 4-1 5-2 7-8 5-13z" fill="#2D5016" opacity="0.15"/>
  <path d="M50 140c-3-1-6-1-9 0-2 1-4 3-5 5l-8 16c-2 5 0 11 5 13 1 1 3 1 4 1 4 0 7-2 9-6l8-16c1-2 1-5 0-7-1-2-2-4-4-6z" fill="#2D5016"/>
</svg>