<svg xmlns="http://www.w3.org/2000/svg" viewBox="0 0 256 256">
  <rect width="256" height="256" fill="#046307"/>
  <path d="M128 40 C100 40 80 60 80 88 C80 100 85 110 92 118 L92 180 C92 195 104 207 119 207 L137 207 C152 207 164 195 164 180 L164 118 C171 110 176 100 176 88 C176 60 156 40 128 40 Z M128 60 C144 60 156 72 156 88 C156 95 153 101 148 106 L144 110 L144 180 C144 184 141 187 137 187 L119 187 C115 187 112 184 112 180 L112 110 L108 106 C103 101 100 95 100 88 C100 72 112 60 128 60 Z" fill="#ffffff"/>
  <path d="M128 50 L140 30 L150 45 L165 35 L160 52 L175 58 L158 65 L160 82 L145 72 L135 88 L128 70 L121 88 L111 72 L96 82 L98 65 L81 58 L96 52 L91 35 L106 45 L116 30 Z" fill="#ffffff" opacity="0.9"/>
  <ellipse cx="120" cy="85" rx="4" ry="6" fill="#046307"/>
  <ellipse cx="136" cy="85" rx="4" ry="6" fill="#046307"/>
</svg>